<svg width="100" height="100" viewBox="0 0 100 100" fill="none" xmlns="http://www.w3.org/2000/svg">
<g clip-path="url(#clip0_1007_7050)">
<rect y="-0.000427246" width="100" height="100" rx="50" fill="#00B259"/>
<path d="M65.6249 31.2505H35.1562C30.1834 31.1781 25.375 33.0299 21.7354 36.4191C18.0958 39.8083 15.9065 44.4727 15.6249 49.438C15.5176 53.0345 16.4474 56.5858 18.3033 59.6683C20.1591 62.7508 22.8627 65.2342 26.0914 66.8222C29.32 68.4102 32.9374 69.0357 36.5119 68.624C40.0863 68.2123 43.4668 66.7809 46.2499 64.5005C47.3313 63.6332 48.6762 63.1606 50.0624 63.1606C51.4487 63.1606 52.7935 63.6332 53.8749 64.5005C55.8342 66.1239 58.1112 67.3197 60.5599 68.011C63.0086 68.7024 65.5748 68.8741 68.0938 68.515C70.6127 68.156 73.0288 67.2743 75.1868 65.9263C77.3449 64.5784 79.1972 62.7941 80.6249 60.688C82.5577 57.9037 83.6995 54.6474 83.929 51.2658C84.1586 47.8841 83.4671 44.5035 81.9283 41.4835C80.3894 38.4635 78.0607 35.9171 75.1899 34.1152C72.3191 32.3134 69.0136 31.3233 65.6249 31.2505ZM41.8749 51.2505C41.6779 51.6992 41.3782 52.0953 40.9999 52.4068L33.2499 58.6568C32.6877 59.1227 31.9801 59.377 31.2499 59.3755C30.7831 59.3832 30.3216 59.2759 29.9062 59.063C29.3675 58.8104 28.9122 58.4093 28.5937 57.9068C28.2701 57.4164 28.1063 56.8378 28.1249 56.2505V43.7505C28.1265 43.1517 28.3 42.566 28.6249 42.063C28.9434 41.5605 29.3988 41.1594 29.9374 40.9068C30.4406 40.6581 31.005 40.5604 31.5624 40.6255C32.1149 40.6904 32.6418 40.8948 33.0937 41.2193L40.9999 47.4693C41.3706 47.763 41.6698 48.1369 41.8749 48.563C42.0748 48.9828 42.1786 49.4418 42.1786 49.9068C42.1786 50.3717 42.0748 50.8308 41.8749 51.2505ZM67.1874 40.6255C67.8107 40.6241 68.4201 40.8091 68.9374 41.1568C69.4504 41.4962 69.8439 41.988 70.0624 42.563C70.3036 43.1351 70.3689 43.7661 70.2499 44.3755C70.1274 44.9761 69.8311 45.5274 69.3977 45.9608C68.9643 46.3942 68.413 46.6905 67.8124 46.813C67.203 46.932 66.572 46.8667 65.9999 46.6255C65.4249 46.407 64.9331 46.0135 64.5937 45.5005C64.2757 45.0302 64.092 44.4821 64.062 43.9152C64.0321 43.3482 64.1572 42.7839 64.4239 42.2827C64.6905 41.7815 65.0887 41.3624 65.5756 41.0704C66.0625 40.7785 66.6197 40.6247 67.1874 40.6255ZM60.9374 53.1255C60.3142 53.1269 59.7047 52.9419 59.1874 52.5943C58.6744 52.2549 58.2809 51.763 58.0624 51.188C57.8212 50.6159 57.756 49.9849 57.8749 49.3755C57.9863 48.7635 58.2777 48.1987 58.7119 47.7533C59.1462 47.308 59.7034 47.0023 60.3124 46.8755C60.9218 46.7566 61.5528 46.8219 62.1249 47.063C62.6999 47.2815 63.1918 47.675 63.5312 48.188C63.8664 48.6588 64.0646 49.2132 64.1036 49.7898C64.1427 50.3664 64.021 50.9426 63.7523 51.4542C63.4835 51.9658 63.0781 52.3929 62.5812 52.6879C62.0843 52.983 61.5153 53.1345 60.9374 53.1255ZM67.1874 59.3755C66.5642 59.3769 65.9547 59.1919 65.4374 58.8443C64.9244 58.5049 64.5309 58.013 64.3124 57.438C64.0712 56.8659 64.006 56.2349 64.1249 55.6255C64.2363 55.0135 64.5277 54.4487 64.9619 54.0033C65.3962 53.558 65.9534 53.2523 66.5624 53.1255C67.1718 53.0066 67.8028 53.0719 68.3749 53.313C68.9499 53.5315 69.4418 53.925 69.7812 54.438C70.1164 54.9088 70.3146 55.4632 70.3536 56.0398C70.3927 56.6164 70.271 57.1926 70.0023 57.7042C69.7335 58.2158 69.3281 58.6429 68.8312 58.9379C68.3343 59.233 67.7653 59.3845 67.1874 59.3755ZM73.4374 53.1255C72.8142 53.1269 72.2047 52.9419 71.6874 52.5943C71.1744 52.2549 70.7809 51.763 70.5624 51.188C70.3212 50.6159 70.256 49.9849 70.3749 49.3755C70.4863 48.7635 70.7777 48.1987 71.2119 47.7533C71.6462 47.308 72.2034 47.0023 72.8124 46.8755C73.4218 46.7566 74.0528 46.8219 74.6249 47.063C75.1999 47.2815 75.6918 47.675 76.0312 48.188C76.3664 48.6588 76.5646 49.2132 76.6036 49.7898C76.6427 50.3664 76.521 50.9426 76.2523 51.4542C75.9835 51.9658 75.5781 52.3929 75.0812 52.6879C74.5843 52.983 74.0153 53.1345 73.4374 53.1255Z" fill="white"/>
</g>
<defs>
<clipPath id="clip0_1007_7050">
<rect width="100" height="100" rx="20" fill="white"/>
</clipPath>
</defs>
</svg>
