<svg width="237" height="70" viewBox="0 0 237 70" fill="none" xmlns="http://www.w3.org/2000/svg">
<g clip-path="url(#clip0_220_184875)">
<rect x="3.05176e-05" y="-0.000167847" width="70" height="70" rx="35" fill="#00B259"/>
<path d="M45.9375 21.8754H24.6094C21.1284 21.8246 17.7625 23.1209 15.2148 25.4933C12.6671 27.8658 11.1346 31.1309 10.9375 34.6066C10.8624 37.1241 11.5132 39.6101 12.8123 41.7678C14.1114 43.9256 16.0039 45.664 18.264 46.7755C20.5241 47.8871 23.0562 48.325 25.5583 48.0368C28.0604 47.7486 30.4268 46.7466 32.375 45.1504C33.132 44.5433 34.0734 44.2124 35.0437 44.2124C36.0141 44.2124 36.9555 44.5433 37.7125 45.1504C39.084 46.2867 40.6779 47.1238 42.392 47.6077C44.1061 48.0917 45.9024 48.2118 47.6657 47.9605C49.4289 47.7092 51.1202 47.092 52.6308 46.1484C54.1414 45.2049 55.4381 43.9559 56.4375 42.4816C57.7904 40.5326 58.5897 38.2532 58.7504 35.886C58.911 33.5189 58.427 31.1524 57.3498 29.0384C56.2726 26.9245 54.6426 25.142 52.633 23.8807C50.6234 22.6193 48.3095 21.9263 45.9375 21.8754ZM29.3125 35.8754C29.1746 36.1894 28.9648 36.4667 28.7 36.6847L23.275 41.0597C22.8814 41.3859 22.3861 41.5639 21.875 41.5629C21.5482 41.5683 21.2252 41.4931 20.9344 41.3441C20.5573 41.1673 20.2386 40.8865 20.0156 40.5347C19.7891 40.1915 19.6745 39.7864 19.6875 39.3754V30.6254C19.6886 30.2062 19.8101 29.7962 20.0375 29.4441C20.2604 29.0924 20.5792 28.8116 20.9562 28.6347C21.3084 28.4607 21.7035 28.3923 22.0937 28.4379C22.4805 28.4833 22.8493 28.6263 23.1656 28.8535L28.7 33.2285C28.9594 33.4341 29.1689 33.6959 29.3125 33.9941C29.4524 34.2879 29.525 34.6093 29.525 34.9347C29.525 35.2602 29.4524 35.5815 29.3125 35.8754ZM47.0312 28.4379C47.4675 28.4369 47.8941 28.5664 48.2562 28.8097C48.6153 29.0473 48.8908 29.3916 49.0437 29.7941C49.2125 30.1946 49.2582 30.6363 49.175 31.0629C49.0892 31.4833 48.8818 31.8692 48.5784 32.1725C48.275 32.4759 47.8891 32.6834 47.4687 32.7691C47.0422 32.8524 46.6005 32.8067 46.2 32.6379C45.7975 32.4849 45.4532 32.2095 45.2156 31.8504C44.9931 31.5211 44.8644 31.1375 44.8435 30.7406C44.8225 30.3438 44.9101 29.9487 45.0968 29.5979C45.2834 29.247 45.5621 28.9537 45.9029 28.7493C46.2438 28.5449 46.6338 28.4373 47.0312 28.4379ZM42.6562 37.1879C42.2199 37.1888 41.7933 37.0593 41.4312 36.816C41.0721 36.5784 40.7967 36.2341 40.6437 35.8316C40.4749 35.4311 40.4292 34.9894 40.5125 34.5629C40.5904 34.1345 40.7944 33.7391 41.0984 33.4273C41.4024 33.1156 41.7924 32.9016 42.2187 32.8129C42.6453 32.7296 43.087 32.7753 43.4875 32.9441C43.89 33.0971 44.2343 33.3725 44.4719 33.7316C44.7065 34.0611 44.8452 34.4493 44.8726 34.8529C44.8999 35.2565 44.8148 35.6598 44.6266 36.0179C44.4385 36.3761 44.1547 36.675 43.8069 36.8816C43.459 37.0881 43.0607 37.1941 42.6562 37.1879ZM47.0312 41.5629C46.5949 41.5638 46.1683 41.4343 45.8062 41.191C45.4471 40.9534 45.1717 40.6091 45.0187 40.2066C44.8499 39.8061 44.8042 39.3644 44.8875 38.9379C44.9654 38.5095 45.1694 38.1141 45.4734 37.8023C45.7774 37.4906 46.1674 37.2766 46.5937 37.1879C47.0203 37.1046 47.462 37.1503 47.8625 37.3191C48.265 37.4721 48.6093 37.7475 48.8469 38.1066C49.0815 38.4361 49.2202 38.8243 49.2476 39.2279C49.2749 39.6315 49.1898 40.0348 49.0016 40.3929C48.8135 40.7511 48.5297 41.05 48.1819 41.2566C47.834 41.4631 47.4357 41.5691 47.0312 41.5629ZM51.4062 37.1879C50.9699 37.1888 50.5433 37.0593 50.1812 36.816C49.8221 36.5784 49.5467 36.2341 49.3937 35.8316C49.2249 35.4311 49.1792 34.9894 49.2625 34.5629C49.3404 34.1345 49.5444 33.7391 49.8484 33.4273C50.1524 33.1156 50.5424 32.9016 50.9687 32.8129C51.3953 32.7296 51.837 32.7753 52.2375 32.9441C52.64 33.0971 52.9843 33.3725 53.2219 33.7316C53.4565 34.0611 53.5952 34.4493 53.6226 34.8529C53.6499 35.2565 53.5648 35.6598 53.3766 36.0179C53.1885 36.3761 52.9047 36.675 52.5569 36.8816C52.209 37.0881 51.8107 37.1941 51.4062 37.1879Z" fill="white"/>
</g>
<path d="M127.135 32.972C125.808 32.202 124.252 31.817 122.467 31.817C120.683 31.817 119.16 32.191 117.833 32.939C116.505 33.687 115.493 34.7485 114.797 36.1235C114.101 37.4985 113.753 39.077 113.753 40.859C113.753 42.641 114.101 44.247 114.797 45.611C115.493 46.975 116.505 48.0365 117.833 48.7955C119.16 49.5545 120.716 49.934 122.5 49.934C124.284 49.934 125.829 49.5545 127.135 48.7955C128.441 48.0365 129.447 46.9805 130.154 45.6275C130.861 44.2745 131.215 42.685 131.215 40.859C131.215 39.033 130.867 37.5095 130.17 36.1565C129.474 34.8035 128.462 33.742 127.135 32.972ZM125.682 43.6805C125.41 44.4395 125.002 45.028 124.458 45.446C123.914 45.864 123.262 46.073 122.5 46.073C121.739 46.073 121.086 45.864 120.542 45.446C119.998 45.028 119.584 44.434 119.301 43.664C119.019 42.894 118.877 41.97 118.877 40.892C118.877 39.814 119.019 38.8185 119.301 38.0375C119.584 37.2565 119.998 36.6625 120.542 36.2555C121.086 35.8485 121.728 35.645 122.467 35.645C123.294 35.645 123.974 35.865 124.507 36.305C125.041 36.745 125.438 37.3555 125.699 38.1365C125.96 38.9175 126.09 39.836 126.09 40.892C126.09 41.948 125.954 42.9215 125.682 43.6805ZM98.0204 41.948C98.0204 42.762 97.9497 43.422 97.8082 43.928C97.6668 44.434 97.422 44.819 97.0738 45.083C96.7257 45.347 96.2361 45.479 95.605 45.479C94.7129 45.479 94.0655 45.215 93.663 44.687C93.2604 44.159 93.0591 43.312 93.0591 42.146H88V42.641C88 44.181 88.2883 45.501 88.865 46.601C89.4416 47.701 90.3011 48.5425 91.4435 49.1255C92.5859 49.7085 93.9948 50 95.6703 50C97.4981 50 98.9996 49.6975 100.175 49.0925C101.35 48.4875 102.22 47.5855 102.786 46.3865C103.352 45.1875 103.634 43.708 103.634 41.948V26.669H98.0204V41.948ZM110.603 25.019C110.157 24.777 109.651 24.656 109.085 24.656C108.476 24.656 107.948 24.777 107.502 25.019C107.056 25.261 106.708 25.58 106.458 25.976C106.207 26.372 106.082 26.845 106.082 27.395C106.082 27.945 106.207 28.4235 106.458 28.8305C106.708 29.2375 107.051 29.5675 107.486 29.8205C107.921 30.0735 108.443 30.2 109.053 30.2C109.662 30.2 110.162 30.079 110.619 29.837C111.076 29.595 111.419 29.265 111.647 28.847C111.876 28.429 111.99 27.956 111.99 27.428C111.99 26.9 111.87 26.3995 111.631 25.9925C111.392 25.5855 111.049 25.261 110.603 25.019ZM106.507 49.472H111.598V32.246H106.507V49.472ZM236.345 41.6675C235.91 40.9745 235.285 40.4135 234.469 39.9845C233.653 39.5555 232.646 39.209 231.449 38.945L229.295 38.516C228.338 38.318 227.647 38.0705 227.223 37.7735C226.798 37.4765 226.586 37.086 226.586 36.602C226.586 36.272 226.689 35.986 226.896 35.744C227.103 35.502 227.391 35.3205 227.761 35.1995C228.131 35.0785 228.566 35.018 229.067 35.018C229.894 35.018 230.541 35.1665 231.009 35.4635C231.477 35.7605 231.743 36.195 231.808 36.767H236.476C236.389 35.161 235.709 33.9345 234.436 33.0875C233.163 32.2405 231.384 31.817 229.099 31.817C227.663 31.817 226.385 32.004 225.264 32.378C224.144 32.752 223.257 33.335 222.604 34.127C221.951 34.919 221.625 35.898 221.625 37.064C221.625 38.428 222.055 39.5005 222.914 40.2815C223.774 41.0625 225.096 41.662 226.88 42.08L228.969 42.542L229.328 42.608C229.937 42.784 230.438 42.9545 230.829 43.1195C231.221 43.2845 231.526 43.4935 231.743 43.7465C231.961 43.9995 232.07 44.313 232.07 44.687C232.07 45.105 231.944 45.4515 231.694 45.7265C231.444 46.0015 231.107 46.2105 230.682 46.3535C230.258 46.4965 229.785 46.568 229.263 46.568C228.327 46.568 227.587 46.392 227.043 46.04C226.499 45.688 226.194 45.16 226.129 44.456H221.266C221.331 46.304 222.076 47.679 223.502 48.581C224.927 49.483 226.825 49.934 229.197 49.934C230.742 49.934 232.086 49.7305 233.228 49.3235C234.371 48.9165 235.285 48.2895 235.97 47.4425C236.655 46.5955 236.998 45.501 236.998 44.159C236.998 43.191 236.781 42.3605 236.345 41.6675ZM144.597 41.057H149.388C149.35 41.7573 149.212 42.3733 148.971 42.905C148.601 43.719 148.03 44.3405 147.257 44.7695C146.485 45.1985 145.555 45.413 144.467 45.413C143.139 45.413 142.046 45.094 141.186 44.456C140.327 43.818 139.701 42.949 139.31 41.849C138.918 40.749 138.722 39.495 138.722 38.087C138.722 36.679 138.918 35.425 139.31 34.325C139.701 33.225 140.316 32.356 141.154 31.718C141.991 31.08 143.063 30.761 144.369 30.761C145.152 30.761 145.859 30.882 146.49 31.124C147.121 31.366 147.638 31.729 148.041 32.213C148.443 32.697 148.721 33.236 148.873 33.83H154.258C154.019 32.202 153.437 30.8105 152.512 29.6555C151.587 28.5005 150.423 27.626 149.02 27.032C147.616 26.438 146.022 26.141 144.238 26.141C141.975 26.141 140 26.647 138.314 27.659C136.628 28.671 135.322 30.09 134.397 31.916C133.472 33.742 133.01 35.832 133.01 38.186C133.01 40.54 133.462 42.476 134.365 44.258C135.268 46.04 136.562 47.4425 138.249 48.4655C139.935 49.4885 141.921 50 144.205 50C146.251 50 148.052 49.6095 149.607 48.8285C151.163 48.0475 152.382 46.8595 153.263 45.2645C154.144 43.6695 154.585 41.684 154.585 39.308V37.196H144.597V41.057ZM168.832 32.5265C167.711 32.0315 166.281 31.784 164.54 31.784C162.799 31.784 161.477 31.9765 160.378 32.3615C159.28 32.7465 158.431 33.3185 157.833 34.0775C157.234 34.8365 156.848 35.755 156.674 36.833H161.537C161.668 36.261 161.956 35.821 162.402 35.513C162.848 35.205 163.496 35.051 164.344 35.051C165.04 35.051 165.595 35.1665 166.009 35.3975C166.422 35.6285 166.716 35.975 166.89 36.437C167.064 36.899 167.151 37.482 167.151 38.186V38.978H164.409C162.603 38.978 161.075 39.1815 159.824 39.5885C158.572 39.9955 157.62 40.6005 156.968 41.4035C156.315 42.2065 155.988 43.246 155.988 44.522C155.988 45.644 156.228 46.612 156.706 47.426C157.185 48.24 157.865 48.8615 158.746 49.2905C159.628 49.7195 160.667 49.934 161.864 49.934C162.756 49.934 163.555 49.8185 164.263 49.5875C164.97 49.3565 165.546 49.054 165.992 48.68C166.439 48.306 166.825 47.866 167.151 47.36H167.314L167.543 49.472H172.08V38.615C172.08 37.075 171.819 35.799 171.296 34.787C170.774 33.775 169.953 33.0215 168.832 32.5265ZM167.151 42.905C167.151 43.653 166.999 44.302 166.694 44.852C166.39 45.402 165.992 45.8145 165.503 46.0895C165.013 46.3645 164.431 46.502 163.757 46.502C163.234 46.502 162.788 46.414 162.418 46.238C162.048 46.062 161.749 45.8035 161.521 45.4625C161.292 45.1215 161.178 44.687 161.178 44.159C161.178 43.543 161.341 43.0535 161.668 42.6905C161.994 42.3275 162.462 42.0635 163.071 41.8985C163.68 41.7335 164.409 41.651 165.258 41.651H167.151V42.905ZM198.077 32.543C197.218 32.059 196.179 31.817 194.96 31.817C193.742 31.817 192.757 32.048 191.876 32.51C190.994 32.972 190.238 33.687 189.607 34.655H189.477C189.107 33.731 188.514 33.027 187.698 32.543C186.882 32.059 185.897 31.817 184.744 31.817C183.591 31.817 182.628 32.0535 181.79 32.5265C180.952 32.9995 180.251 33.698 179.685 34.622H179.522L179.424 32.246H174.658V49.472H179.75V39.572C179.75 38.296 179.984 37.35 180.452 36.734C180.92 36.118 181.611 35.81 182.524 35.81C183.438 35.81 184.102 36.1235 184.515 36.7505C184.929 37.3775 185.136 38.318 185.136 39.572V49.472H190.26V39.572C190.26 38.736 190.363 38.032 190.57 37.46C190.777 36.888 191.087 36.47 191.5 36.206C191.914 35.942 192.414 35.81 193.002 35.81C193.894 35.81 194.547 36.118 194.96 36.734C195.374 37.35 195.58 38.296 195.58 39.572V49.472H200.705V37.955C200.705 36.657 200.482 35.5515 200.036 34.6385C199.59 33.7255 198.937 33.027 198.077 32.543ZM216.127 32.9885C214.854 32.2075 213.293 31.817 211.443 31.817C209.724 31.817 208.212 32.2075 206.906 32.9885C205.601 33.7695 204.589 34.853 203.871 36.239C203.153 37.625 202.794 39.176 202.794 40.892C202.794 42.762 203.158 44.3735 203.887 45.7265C204.616 47.0795 205.633 48.119 206.939 48.845C208.244 49.571 209.779 49.934 211.541 49.934C213.652 49.934 215.403 49.4775 216.796 48.5645C218.189 47.6515 219.146 46.348 219.668 44.654H215.034C214.816 45.182 214.43 45.6 213.875 45.908C213.32 46.216 212.629 46.37 211.802 46.37C210.932 46.37 210.203 46.194 209.615 45.842C209.028 45.49 208.582 45.0005 208.277 44.3735C207.98 43.7612 207.807 43.0077 207.758 42.113H219.995V41.486C219.995 39.528 219.668 37.8175 219.016 36.3545C218.363 34.8915 217.4 33.7695 216.127 32.9885ZM207.755 39.077V39.044C207.842 38.274 208.049 37.614 208.375 37.064C208.701 36.514 209.131 36.096 209.664 35.81C210.197 35.524 210.812 35.381 211.508 35.381C212.205 35.381 212.814 35.5295 213.336 35.8265C213.858 36.1235 214.266 36.5525 214.56 37.1135C214.854 37.6745 215.023 38.329 215.066 39.077H207.755Z" fill="white"/>
<defs>
<clipPath id="clip0_220_184875">
<rect width="70" height="70" rx="20" fill="white"/>
</clipPath>
</defs>
</svg>
